<svg xmlns="http://www.w3.org/2000/svg" width="545" height="344" viewBox="0 0 545 344" version="1.1"><path d="" stroke="none" fill="#000000" fill-rule="evenodd"/><path d="" stroke="none" fill="#969696" fill-rule="evenodd"/><path d="M 410.019 1.303 C 399.116 6.739, 370.424 59.370, 335.443 138.103 C 323.574 164.817, 307.422 203.470, 306.359 207.704 C 305.484 211.193, 304.461 211.330, 292.339 209.583 C 276.381 207.283, 255.228 205.303, 221.518 202.957 C 205.028 201.808, 191.370 200.704, 191.168 200.502 C 189.671 199.004, 223.031 115.386, 243.034 70.500 C 254.791 44.117, 255.960 39.124, 251.815 33.024 C 243.616 20.960, 219.673 25.424, 213.004 40.260 C 193.945 82.662, 186.766 101.303, 168.044 157 L 153.423 200.500 135.961 201.712 C 51.613 207.566, 14.956 227.477, 2.881 274 C -7.873 315.437, 13.525 345.003, 52.500 342.560 C 117.016 338.517, 145.241 316.159, 172.505 247.500 C 176.218 238.150, 179.591 230.130, 180.001 229.677 C 182.522 226.893, 290.612 236.278, 293.900 239.567 C 294.166 239.833, 290.038 252.977, 284.725 268.775 C 265.186 326.888, 264.791 329.645, 275.109 335.920 C 288.600 344.125, 294.831 338.085, 303.908 308 C 344.697 172.815, 404.886 38.925, 424.828 39.017 C 432.673 39.053, 453.197 49.475, 479.250 66.652 C 497.444 78.647, 500.052 77.043, 440.528 90.468 C 391.891 101.437, 392.046 101.362, 401.996 108.926 C 418.949 121.815, 417.760 121.876, 470.470 105.385 C 541.532 83.152, 548.902 78.871, 534.250 68.335 C 494.079 39.449, 416.965 -2.160, 410.019 1.303 M 113.705 232.088 C 55.729 236.873, 28.054 257.815, 30.221 295.260 C 31.841 323.248, 83.510 318.490, 114.500 287.500 C 128.543 273.457, 143 245.181, 143 231.757 C 143 230.821, 126.848 231.004, 113.705 232.088" stroke="none" fill="#fbfbfb" fill-rule="evenodd"/></svg>